<svg width="170" height="73" xmlns="http://www.w3.org/2000/svg" xmlns:xlink="http://www.w3.org/1999/xlink" xmlns:svgjs="http://svgjs.com/svgjs" viewBox="875 1168 170 73"><svg width="170" height="51" xmlns="http://www.w3.org/2000/svg" xmlns:xlink="http://www.w3.org/1999/xlink" xmlns:svgjs="http://svgjs.com/svgjs" viewBox="0 0.359 170 50.282" fill="#ececec" x="875" y="1190"><svg xmlns="http://www.w3.org/2000/svg" xmlns:xlink="http://www.w3.org/1999/xlink" width="170" height="51" viewBox="1.791 1.975 168.859 49.944"><path paint-order="stroke fill markers" fill-rule="evenodd" d="M170.15 3.839L86.87 51.785a1.003 1.003 0 01-1.368-.366.997.997 0 01.367-1.364l83.278-47.946a1.003 1.003 0 011.368.365.998.998 0 01-.366 1.365zm-167.858 0l83.155 47.946c.479.276 1.09.112 1.367-.366a.998.998 0 00-.367-1.364L3.292 2.109a.998.998 0 10-1 1.73z"/></svg></svg><svg width="170" height="51" xmlns="http://www.w3.org/2000/svg" xmlns:xlink="http://www.w3.org/1999/xlink" xmlns:svgjs="http://svgjs.com/svgjs" viewBox="0 0.359 170 50.282" fill="#ececec" x="875" y="1168"><svg xmlns="http://www.w3.org/2000/svg" width="170" height="51" viewBox="1.791 2 168.859 49.944"><path paint-order="stroke fill markers" fill-rule="evenodd" d="M170.15 3.864L86.87 51.81a1.003 1.003 0 01-1.368-.366.997.997 0 01.367-1.364l83.278-47.946a1.003 1.003 0 011.368.365.998.998 0 01-.366 1.365zm-167.858 0L85.447 51.81c.479.276 1.09.112 1.367-.366a.998.998 0 00-.367-1.364L3.292 2.134a.998.998 0 10-1 1.73z"/></svg></svg></svg>